# xmcd
#
# Track frame offsets:
#   182
#   16695
#   28710
#   43202
#   62340
#   75812
#   92385
#   106657
#   119762
#   139597
#   157495
#   172440
#
# Disc length: 2511 seconds
#
# Revision: 3
# Processed by: cddbd v1.5.1PL0 Copyright (c) Steve Scherf et al.
# Submitted via: Media_Universe 3.0
#
DISCID=9409cd0c
DTITLE=Kenny Rogers - All-Time Greatest Hits - Disc 2
DYEAR=1900
DGENRE=Country
TTITLE0=Lucille
TTITLE1=Reuben James
TTITLE2=Daytime Friends
TTITLE3=She Believes In Me
TTITLE4=I Wish I Could Hurt That Way Again
TTITLE5=You Decorated My Life
TTITLE6=All I Ever Need Is You (With Dottie West)
TTITLE7=Somewhere Between Lovers And Friends
TTITLE8=Through The Years
TTITLE9=Scarlett Fever
TTITLE10=Buried Treasures
TTITLE11=Green, Green Grass Of Home
EXTD=
EXTT0=
EXTT1=
EXTT2=
EXTT3=
EXTT4=
EXTT5=
EXTT6=
EXTT7=
EXTT8=
EXTT9=
EXTT10=
EXTT11=
PLAYORDER=
